<?xml version="1.0" encoding="UTF-8"?>
<svg id="Capa_2" data-name="Capa 2" xmlns="http://www.w3.org/2000/svg" viewBox="0 0 1141.38 212.62">
  <defs>
    <style>
      .cls-1 {
        fill: #7c3a9e;
        stroke-width: 0px;
      }
    </style>
  </defs>
  <g id="Capa_1-2" data-name="Capa 1">
    <path class="cls-1" d="M106.21,0c57.75.13,106.84,45.17,106.62,106.47-.22,62.54-50.35,106.9-107.94,106.15C48.48,211.88.38,167.63,0,106.91-.39,44.45,49.76.22,106.21,0ZM179.27,171.93c9.02-8.21,17.9-23.92,21.77-37.58,7.37-26,4.74-51-7.78-74.89-8.63-16.47-21.51-28.97-37.38-38.49-1.87-1.12-3.87-2.41-5.68.09-4.95,6.82-9.87,13.66-15,20.75q8.81.05,10.19,8.74c.54,3.44.8,6.95,1.57,10.34.46,2.05.33,3.61-.37,4.82-1.07,1.84-2.91,1.83-4.45,2.85-3.81,2.51-3.82,9.92-2.93,14.35,1.79,8.94,8.17,10.48,7.24,16.02-.15.87-.61,1.96-.67,2.11-1.36,3.51-3.27,5.11-4.55,6.79-2.05,2.68-2.55,6.29-3.55,13.51-.51,3.68-.44,5.42-1.98,7.15-1.91,2.15-4.8,2.62-5.46,2.73-1.57.26-3.65.05-7.81-.38-1.86-.19-2.79-.33-3.58.28-1.25.97-1.12,3.06-1.04,4.14.84,11.42,1.38,17.02,3.68,19.8,1.96,2.37,4.87,4.2,9.15,5.37,3.52.97,6.96,2.26,10.5,3.11,8.75,2.11,17.45,4.34,25.38,8.73,3.87,2.14,4.76,1.05,4.73-3.02-.13-18.61-.2-37.22.03-55.83.07-6.01-1.04-11.33-4.13-16.58-3.44-5.85-6.03-12.2-9.03-18.31-1.31-2.66-1.85-5.29-.49-8.12,4.17-8.68,8.14-17.47,12.52-26.05,2.46-4.83,5.73-4.83,8.42-.14,4.96,8.65,9.27,17.65,13.43,26.71,1.16,2.52.89,4.71-.29,7.12-3.36,6.86-6.46,13.86-9.92,20.67-1.87,3.68-2.64,7.39-2.6,11.49.13,12.79.06,25.59.06,38.38,0,7.45,0,14.91,0,23.35ZM139.5,186.58c-2.32-1.6-4.75-3.07-6.95-4.81-14.47-11.42-23.67-25.61-22.41-44.8.33-5,1.39-9.53-5.22-11.18-1.83-.46-2.68-2.53-1.85-4.55.91-2.21,2.79-2.86,4.93-2.09,2.65.95,5.26,2.08,7.79,3.31,4,1.95,8.21,2.55,12.6,2.38,2.66-.1,3.67-1.18,3.76-4.01.03-.96-.02-8.65,1.82-12.95,2.11-4.95,6.72-5.53,6.32-8.71-.16-1.25-.87-1.17-2.62-3.82-2.35-3.56-3.21-6.95-3.59-8.5-.79-3.22-.13-3.1-1-6.52-.74-2.93-1.59-6.13-3.93-7.03-.25-.1-1.45-.68-3.19.09-12.79,5.66-24.83,18.04-24.32,32.39.14,3.86-.72,7.59-1.72,11.29-3.68,13.6-5.24,27.1,1.75,40.27,1.02,1.93.96,4.04-1.26,5.18-2.28,1.18-4.25.41-5.47-1.81-.95-1.74-1.8-3.56-2.51-5.42-4.99-13.02-3.62-26.1-.26-39.19,1.24-4.83,2.48-9.7,2.02-14.74-.41-4.46-2.35-8.01-7.06-9.2-5.22-1.32-10.28,1.51-11.4,6.22-1.42,5.95,1.6,10.48,8.05,12.12,5.59,1.42,6.45,3.11,3.45,7.91-7.65,12.27-13.74,25.46-22.07,37.31-2.16,3.07-1.44,4.12,1.98,4.86,13.08,2.82,25.27,8.13,37.42,13.56,11.34,5.07,22.56,10.52,34.93,12.45ZM57.6,104.7c.67,0,1.34-.06,1.99.01,4.89.55,8-.26,8.26-6.5.24-5.74,3.92-10.16,9.32-12.64,2.22-1.02,3.81-2.49,5.14-4.5,8.43-12.63,18.88-23.18,32.27-30.56,3.41-1.88,3.14-3.03-.02-4.9-24.44-14.46-56.98,2.56-59.09,30.93-.52,6.96-1.2,13.91-3.59,20.56q-2.73,7.6,5.71,7.6ZM25.97,96.91v.02c-4.49,0-8.98.05-13.47-.02-3.02-.04-4.6,1.12-4.73,4.34-.65,16.06,2.32,31.39,8.91,46.05,1.75,3.9,3.49,4.42,6.83,1.32,9.31-8.65,15.47-19.44,21.54-30.34,3.11-5.57,2.75-6.16-3.85-6.2-1.83,0-3.66,0-5.49-.05-2.34-.07-4.47-.73-4.68-3.44-.19-2.49,1.7-3.45,3.8-3.81,2.4-.41,4.42-1.46,5.99-3.28.85-.98,2.08-2.07,1.6-3.45-.54-1.59-2.24-1.11-3.5-1.13-4.32-.06-8.65-.02-12.97-.02ZM78.7,171.9c6.05,8.66,7.18,17.17,5.32,25.83-.95,4.44.85,5.08,4.24,5.65,9.56,1.59,19.2,1.79,28.77.93,9.64-.87,19.08-3.08,29.16-7.99-24.64-3.46-44.36-16.28-67.5-24.42ZM50.46,165.86c-3.3.14-7.78,1.61-12,4.18-3.57,2.17-4.15,4.14-.79,7.19,9.82,8.89,20.61,16.14,32.98,21.07,3.89,1.55,5.36.42,6.19-3.4,3.07-14.11-9.67-29.15-26.39-29.05ZM47.36,80.61c.55-3.13-.89-5.13-4.58-5.84-4.56-.87-9.05-2.14-13.59-3.14-15.02-3.31-13.83-6.9-18.53,11.27-1.4,5.42-.96,5.91,4.9,5.94,7.98.04,15.95.02,23.93,0,6.72-.01,7.52-.82,7.88-8.23ZM134.66,50.58c-.32.08-.64.16-.96.25-17.85,5.1-31.31,16.22-42.32,30.73-1.53,2.02-.97,3.4,1.22,4.19,2.25.81,4.28,4.6,6.95.31,7.9-12.71,19.77-19.71,33.96-23.38,5.29-1.37,6.98-6.72,3.72-11.07-.7-.93-1.48-1.25-2.57-1.02ZM125.44,9.49c-1.64-.41-2.47,1.05-3.08,3-1.68,5.39-3.49,10.75-5.17,16.14-2.58,8.28-2.51,8.21,4.85,12.59,1.76,1.05,2.92,1.25,4.18-.5,5.44-7.55,10.92-15.07,16.38-22.61,1.27-1.76.91-3.06-1.11-3.91-4.92-2.08-10.08-3.38-16.05-4.71ZM45.83,67.64c.54.04,1.56.1,2.59-.45.55-.29,1.32-.88,2.61-3.76,1.33-3,2-4.49,1.45-5.86-.21-.52-.48-.78-2.23-2.29-2.19-1.89-3.3-2.81-3.79-3.22-3.69-3.09-7.46-6.1-11.16-9.18-1.79-1.48-3.27-1.11-4.71.55-4.04,4.66-7.51,9.7-10.42,15.14-.94,1.75-.54,2.78,1.44,3.25,3.92.93,13.79,5.08,24.22,5.81ZM67.02,39.2c-2.21-4.37-4.84-9.17-7.09-14.14-1.55-3.43-3.43-4.16-6.45-1.89-4.1,3.09-8.2,6.2-12.35,9.22-2.7,1.97-2.24,3.59.19,5.41,2.66,1.98,5.23,4.08,7.74,6.25q7.52,6.51,14.99-.03c1.32-1.16,3.24-1.92,2.96-4.81ZM175.38,93.59c.37-.54.92-1.14,1.25-1.84,2.44-5.1,4.82-10.22,7.24-15.32.67-1.4,1.03-2.77.27-4.28-2.61-5.19-5.15-10.42-7.78-15.61-.73-1.44-2.08-2.96-3.21-.72-2.93,5.76-5.54,11.7-8.11,17.64-.31.72.22,1.96.63,2.82,2.45,5.09,4.96,10.15,7.49,15.21.42.85.69,1.91,2.22,2.11ZM104.77,8.13c-1.83,0-3.66.13-5.48-.03-4.61-.4-6.41,1.55-5.68,6.14.8,5.08,1.31,10.2,2.07,15.28.11.7.36,1.77,1.22,2.63.34.34,1.01.86,4.36,1.37,2.62.4,3.95.59,4.92.09,1.35-.69,1.99-2.04,2.28-3.04,1.2-4.14,2.65-8.21,3.95-12.33,3.62-11.41,3.83-10.08-7.65-10.11ZM64.42,113.88c.06-1.16-.43-1.59-1.15-1.63-2.94-.18-5.93-.89-7.75,2.68-8.03,15.7-16.46,31.14-30.4,42.65-1.97,1.63-.93,3.23.1,4.81,1.26,1.93,2.74,1.51,4.19.28,1.51-1.29,3.04-2.58,4.41-4.02,12.17-12.69,21.29-27.5,29.64-42.84.39-.72.74-1.47.97-1.93ZM88.28,28.63c-.8-9.92-1.73-8.79-2.62-14.9-.11-.73-.29-2.08-1.3-2.72-.73-.46-1.75-.45-3.14,0-4.09,1.31-8.21,2.5-12.22,4.12-3.39,1.37-4.4,2.86-2.42,6.23,2.18,3.71,3.92,7.66,5.85,11.5,1.08,2.15,1.36,2.91,2.34,3.4,1.06.52,2,.27,6.49-1.18,5.04-1.63,6.13-2.05,6.75-3.27.42-.83.39-1.55.26-3.18ZM44.68,158.54c4.87-.36,8.4.46,11.01-2.86,8.7-11.05,14.46-23.84,21.54-35.85,1.34-2.27-.25-3.27-1.87-4.32-2.03-1.32-2.95-.23-3.84,1.47-1.68,3.24-3.42,6.46-5.22,9.64-6.13,10.82-13.13,21.08-21.63,31.92ZM131.37,170.44c8.72,8.39,18.22,13.57,28.41,17.34,3.12,1.15,6.24-2.04,7.47-4.66.1-.2.2-.67.18-1.22-.18-4.39-9.99-7.43-13.25-8.43-5.1-1.58-9.37-2.06-13.2-2.47-3.93-.42-7.23-.54-9.6-.56Z"/>
    <g>
      <path class="cls-1" d="M308.44,151.26h-28.39V50.9h78.71v21.93h-50.32v78.42ZM306.43,94.92h46.31v21.93h-46.31v-21.93Z"/>
      <path class="cls-1" d="M400.2,129.33h52.47v21.93h-80.57V50.9h78.71v21.93h-50.61v56.49ZM398.19,89.76h46.59v21.22h-46.59v-21.22Z"/>
      <path class="cls-1" d="M468.44,151.26V50.9h23.37l41.58,68.24h-12.33l40.43-68.24h23.37l.29,100.36h-26.09l-.29-60.64h4.44l-30.25,50.75h-12.62l-31.11-50.75h5.45v60.64h-26.24Z"/>
      <path class="cls-1" d="M605.21,151.26V50.9h28.39v100.36h-28.39Z"/>
      <path class="cls-1" d="M653.8,151.26V50.9h23.37l55.34,66.81h-11.04V50.9h27.81v100.36h-23.37l-55.34-66.81h11.04v66.81h-27.81Z"/>
      <path class="cls-1" d="M757.31,151.26l44.3-100.36h27.96l44.44,100.36h-29.53l-34.69-86.45h11.18l-34.69,86.45h-28.96ZM781.54,131.76l7.31-20.93h49.03l7.31,20.93h-63.65Z"/>
      <path class="cls-1" d="M882.04,151.26V50.9h45.88c9.18,0,17.08,1.48,23.73,4.44,6.64,2.96,11.78,7.24,15.41,12.83,3.63,5.59,5.45,12.21,5.45,19.86s-1.82,14.07-5.45,19.57c-3.63,5.5-8.77,9.7-15.41,12.62-6.64,2.92-14.55,4.37-23.73,4.37h-30.11l12.62-11.9v38.57h-28.39ZM910.43,115.71l-12.62-13.05h28.39c5.92,0,10.34-1.29,13.26-3.87,2.91-2.58,4.37-6.16,4.37-10.75s-1.46-8.32-4.37-10.9c-2.92-2.58-7.34-3.87-13.26-3.87h-28.39l12.62-13.05v55.48ZM944.12,151.26l-24.95-36.56h30.25l25.09,36.56h-30.39Z"/>
      <path class="cls-1" d="M988.13,151.26V50.9h28.39v100.36h-28.39Z"/>
      <path class="cls-1" d="M1024.69,151.26l44.3-100.36h27.96l44.44,100.36h-29.53l-34.69-86.45h11.18l-34.69,86.45h-28.96ZM1048.91,131.76l7.31-20.93h49.03l7.31,20.93h-63.65Z"/>
    </g>
  </g>
</svg>