<?xml version="1.0" encoding="UTF-8"?>
<svg id="Capa_2" data-name="Capa 2" xmlns="http://www.w3.org/2000/svg" viewBox="0 0 861.33 659.5">
  <defs>
    <style>
      .cls-1 {
        fill: #7c3a9e;
        stroke-width: 0px;
      }
    </style>
  </defs>
  <g id="Capa_1-2" data-name="Capa 1">
    <path class="cls-1" d="M425.19,0c128.67.29,238.06,100.65,237.57,237.23-.5,139.34-112.19,238.2-240.51,236.52-125.69-1.65-232.86-100.23-233.7-235.53C187.67,99.05,299.41.5,425.19,0ZM587.98,383.1c20.09-18.3,39.88-53.3,48.51-83.74,16.42-57.94,10.56-113.65-17.34-166.87-19.24-36.7-47.93-64.56-83.29-85.77-4.16-2.49-8.61-5.37-12.66.2-11.04,15.19-22,30.43-33.41,46.24q19.63.11,22.71,19.46c1.21,7.68,1.78,15.48,3.49,23.04,1.03,4.56.74,8.05-.81,10.73-2.39,4.11-6.49,4.08-9.93,6.34-8.49,5.6-8.51,22.09-6.53,31.98,3.99,19.91,18.2,23.35,16.14,35.68-.32,1.93-1.36,4.37-1.49,4.71-3.03,7.82-7.28,11.39-10.14,15.13-4.56,5.97-5.68,14.01-7.92,30.09-1.14,8.2-.97,12.07-4.4,15.94-4.26,4.79-10.69,5.84-12.16,6.08-3.49.57-8.13.1-17.41-.84-4.14-.42-6.22-.73-7.97.63-2.77,2.16-2.49,6.83-2.31,9.23,1.87,25.43,3.08,37.92,8.19,44.12,4.36,5.29,10.85,9.35,20.4,11.97,7.84,2.15,15.5,5.03,23.4,6.93,19.49,4.7,38.89,9.68,56.56,19.45,8.62,4.77,10.61,2.34,10.54-6.72-.29-41.47-.45-82.94.06-124.4.17-13.4-2.32-25.24-9.2-36.93-7.66-13.04-13.43-27.19-20.12-40.81-2.91-5.93-4.11-11.79-1.08-18.09,9.3-19.35,18.14-38.93,27.89-58.05,5.48-10.75,12.77-10.75,18.75-.31,11.05,19.28,20.64,39.32,29.93,59.51,2.58,5.62,1.98,10.5-.65,15.86-7.49,15.29-14.38,30.88-22.1,46.05-4.16,8.19-5.89,16.47-5.8,25.59.28,28.51.13,57.02.14,85.53,0,16.61,0,33.21,0,52.04ZM499.36,415.75c-5.18-3.56-10.58-6.84-15.5-10.72-32.24-25.46-52.74-57.07-49.92-99.83.73-11.15,3.1-21.24-11.64-24.92-4.08-1.02-5.98-5.63-4.12-10.14,2.03-4.93,6.21-6.37,10.98-4.67,5.91,2.12,11.71,4.63,17.36,7.37,8.92,4.33,18.29,5.68,28.08,5.31,5.92-.22,8.18-2.64,8.38-8.93.07-2.15-.04-19.27,4.06-28.86,4.71-11.03,14.98-12.32,14.08-19.42-.36-2.79-1.95-2.62-5.85-8.52-5.23-7.92-7.15-15.49-7.99-18.95-1.76-7.18-.29-6.9-2.22-14.53-1.65-6.53-3.55-13.66-8.76-15.67-.56-.21-3.23-1.52-7.12.21-28.49,12.61-55.32,40.19-54.19,72.18.3,8.6-1.61,16.92-3.84,25.16-8.2,30.31-11.68,60.39,3.9,89.72,2.28,4.3,2.14,8.99-2.8,11.55-5.08,2.64-9.47.91-12.18-4.04-2.13-3.88-4-7.94-5.59-12.08-11.12-29.02-8.07-58.16-.59-87.33,2.76-10.77,5.53-21.61,4.51-32.83-.9-9.93-5.23-17.85-15.72-20.49-11.64-2.94-22.91,3.36-25.41,13.85-3.16,13.25,3.56,23.36,17.95,27.01,12.46,3.16,14.37,6.93,7.69,17.63-17.05,27.33-30.61,56.73-49.18,83.14-4.82,6.85-3.21,9.19,4.42,10.83,29.15,6.28,56.3,18.11,83.38,30.23,25.26,11.3,50.27,23.43,77.83,27.75ZM316.88,233.29c1.48,0,2.98-.14,4.44.02,10.9,1.22,17.83-.58,18.41-14.48.54-12.79,8.74-22.65,20.76-28.17,4.95-2.27,8.48-5.55,11.46-10.02,18.78-28.14,42.06-51.65,71.9-68.09,7.6-4.19,7-6.76-.05-10.93-54.45-32.21-126.95,5.71-131.66,68.91-1.15,15.5-2.68,31-7.99,45.81q-6.08,16.93,12.73,16.94ZM246.4,215.93v.03c-10,0-20.01.1-30.01-.04-6.72-.09-10.25,2.5-10.54,9.68-1.44,35.78,5.18,69.94,19.85,102.61,3.9,8.69,7.77,9.85,15.22,2.93,20.75-19.27,34.47-43.32,48-67.59,6.92-12.41,6.13-13.73-8.58-13.81-4.08-.02-8.15.02-12.23-.11-5.21-.16-9.96-1.62-10.43-7.67-.43-5.54,3.8-7.68,8.47-8.49,5.35-.92,9.84-3.26,13.35-7.3,1.9-2.19,4.62-4.6,3.57-7.68-1.21-3.55-4.99-2.48-7.79-2.51-9.63-.13-19.27-.05-28.9-.05ZM363.89,383.02c13.48,19.31,16.01,38.26,11.86,57.56-2.12,9.89,1.89,11.32,9.45,12.58,21.3,3.54,42.78,3.99,64.11,2.07,21.49-1.93,42.52-6.86,64.97-17.8-54.91-7.71-98.83-36.27-150.39-54.42ZM300.97,369.56c-7.35.31-17.33,3.6-26.73,9.32-7.95,4.84-9.26,9.23-1.75,16.02,21.88,19.81,45.93,35.96,73.48,46.95,8.67,3.46,11.95.94,13.8-7.57,6.85-31.45-21.54-64.96-58.8-64.73ZM294.05,179.63c1.23-6.98-1.98-11.43-10.2-13.01-10.17-1.95-20.17-4.78-30.29-7-33.48-7.37-30.81-15.37-41.3,25.11-3.13,12.07-2.13,13.16,10.92,13.23,17.77.09,35.55.05,53.32.01,14.97-.03,16.76-1.84,17.55-18.34ZM488.59,112.71c-.72.19-1.43.36-2.15.57-39.76,11.36-69.77,36.14-94.3,68.47-3.41,4.5-2.17,7.58,2.71,9.33,5,1.79,9.54,10.24,15.48.69,17.6-28.31,44.06-43.93,75.68-52.1,11.78-3.05,15.56-14.97,8.3-24.67-1.55-2.07-3.31-2.78-5.72-2.28ZM468.05,21.15c-3.66-.92-5.49,2.33-6.85,6.68-3.75,12.02-7.78,23.95-11.52,35.97-5.74,18.44-5.58,18.3,10.8,28.06,3.92,2.33,6.5,2.78,9.32-1.12,12.12-16.82,24.33-33.59,36.49-50.38,2.83-3.91,2.03-6.81-2.47-8.72-10.97-4.64-22.46-7.54-35.76-10.49ZM290.66,150.72c1.19.08,3.48.22,5.77-1,1.23-.65,2.95-1.96,5.81-8.38,2.97-6.68,4.46-10.02,3.22-13.05-.47-1.17-1.07-1.74-4.97-5.1-4.88-4.21-7.35-6.27-8.44-7.18-8.23-6.88-16.61-13.59-24.87-20.45-3.98-3.3-7.28-2.48-10.49,1.23-9.01,10.38-16.74,21.62-23.22,33.74-2.09,3.91-1.21,6.2,3.21,7.24,8.74,2.07,30.74,11.31,53.97,12.95ZM337.87,87.34c-4.93-9.74-10.79-20.43-15.8-31.52-3.45-7.63-7.64-9.27-14.36-4.21-9.14,6.88-18.26,13.81-27.51,20.54-6.02,4.38-5,8,.42,12.04,5.92,4.41,11.66,9.09,17.24,13.92q16.77,14.51,33.41-.07c2.94-2.58,7.21-4.29,6.6-10.72ZM579.31,208.55c.83-1.19,2.04-2.54,2.79-4.1,5.43-11.35,10.74-22.76,16.14-34.13,1.49-3.13,2.29-6.17.59-9.54-5.82-11.57-11.48-23.22-17.34-34.78-1.63-3.22-4.63-6.58-7.16-1.62-6.54,12.84-12.33,26.07-18.06,39.3-.7,1.61.48,4.36,1.41,6.28,5.45,11.35,11.05,22.62,16.68,33.88.94,1.89,1.53,4.26,4.94,4.7ZM421.99,18.11c-4.07,0-8.16.29-12.2-.06-10.27-.88-14.27,3.46-12.67,13.69,1.78,11.31,2.91,22.72,4.62,34.05.24,1.57.8,3.94,2.73,5.85.76.75,2.24,1.92,9.71,3.05,5.84.89,8.81,1.31,10.97.2,3-1.54,4.44-4.56,5.08-6.78,2.67-9.23,5.9-18.3,8.81-27.46,8.08-25.43,8.54-22.46-17.05-22.53ZM332.08,253.76c.14-2.58-.96-3.54-2.57-3.64-6.55-.4-13.2-1.97-17.27,5.97-17.9,34.98-36.68,69.38-67.73,95.03-4.39,3.63-2.07,7.21.22,10.72,2.81,4.3,6.11,3.37,9.33.62,3.37-2.87,6.77-5.76,9.83-8.95,27.12-28.28,47.43-61.28,66.04-95.45.87-1.61,1.64-3.27,2.15-4.29ZM385.24,63.79c-1.79-22.11-3.84-19.58-5.85-33.19-.24-1.62-.65-4.63-2.89-6.07-1.62-1.04-3.91-1-7,0-9.12,2.93-18.3,5.56-27.23,9.18-7.55,3.05-9.8,6.38-5.39,13.88,4.86,8.26,8.74,17.06,13.04,25.62,2.41,4.8,3.03,6.49,5.22,7.57,2.36,1.17,4.46.61,14.47-2.62,11.23-3.63,13.66-4.57,15.05-7.28.94-1.84.87-3.46.58-7.08ZM288.09,353.27c10.86-.8,18.72,1.02,24.54-6.38,19.38-24.61,32.22-53.13,48.01-79.88,2.98-5.06-.56-7.28-4.17-9.63-4.51-2.94-6.58-.5-8.55,3.28-3.75,7.23-7.62,14.4-11.63,21.48-13.66,24.12-29.26,46.97-48.2,71.12ZM481.25,379.76c19.43,18.7,40.59,30.24,63.3,38.64,6.94,2.57,13.9-4.55,16.64-10.38.21-.46.45-1.49.4-2.72-.39-9.77-22.27-16.54-29.53-18.79-11.36-3.52-20.89-4.59-29.41-5.5-8.75-.94-16.11-1.2-21.4-1.24Z"/>
    <g>
      <path class="cls-1" d="M28.39,659.5H0v-100.36h78.71v21.93H28.39v78.42ZM26.38,603.16h46.31v21.93H26.38v-21.93Z"/>
      <path class="cls-1" d="M120.14,637.56h52.47v21.94h-80.57v-100.36h78.71v21.93h-50.61v56.49ZM118.13,598h46.59v21.22h-46.59v-21.22Z"/>
      <path class="cls-1" d="M188.38,659.5v-100.36h23.37l41.58,68.24h-12.33l40.43-68.24h23.37l.29,100.36h-26.09l-.29-60.64h4.44l-30.25,50.75h-12.62l-31.11-50.75h5.45v60.64h-26.24Z"/>
      <path class="cls-1" d="M325.15,659.5v-100.36h28.39v100.36h-28.39Z"/>
      <path class="cls-1" d="M373.75,659.5v-100.36h23.37l55.34,66.81h-11.04v-66.81h27.81v100.36h-23.37l-55.34-66.81h11.04v66.81h-27.81Z"/>
      <path class="cls-1" d="M477.26,659.5l44.3-100.36h27.96l44.44,100.36h-29.53l-34.69-86.45h11.18l-34.69,86.45h-28.96ZM501.49,640l7.31-20.93h49.03l7.31,20.93h-63.65Z"/>
      <path class="cls-1" d="M601.98,659.5v-100.36h45.88c9.18,0,17.08,1.48,23.73,4.44,6.64,2.96,11.78,7.24,15.41,12.83,3.63,5.59,5.45,12.21,5.45,19.86s-1.82,14.07-5.45,19.57c-3.63,5.5-8.77,9.7-15.41,12.62-6.64,2.92-14.55,4.37-23.73,4.37h-30.11l12.62-11.9v38.57h-28.39ZM630.37,623.94l-12.62-13.05h28.39c5.92,0,10.34-1.29,13.26-3.87,2.91-2.58,4.37-6.16,4.37-10.75s-1.46-8.32-4.37-10.9c-2.92-2.58-7.34-3.87-13.26-3.87h-28.39l12.62-13.05v55.48ZM664.06,659.5l-24.95-36.56h30.25l25.09,36.56h-30.39Z"/>
      <path class="cls-1" d="M708.07,659.5v-100.36h28.39v100.36h-28.39Z"/>
      <path class="cls-1" d="M744.63,659.5l44.3-100.36h27.96l44.44,100.36h-29.53l-34.69-86.45h11.18l-34.69,86.45h-28.96ZM768.86,640l7.31-20.93h49.03l7.31,20.93h-63.65Z"/>
    </g>
  </g>
</svg>